{"glyphs":{":":{"x_min":0,"x_max":182,"ha":182,"o":"m 173 122 l 142 0 l 40 0 l 71 122 z m 288 575 l 256 453 l 154 453 l 186 575 z"},"$":{"x_min":0,"x_max":380,"ha":380,"o":"m 179 187 l 161 117 q 153 87 182 87 l 223 87 q 253 87 259 117 l 293 249 q 298 269 294 276 q 289 282 279 288 l 178 364 q 164 375 158 384 q 151 394 150 404 q 148 413 150 424 q 152 435 156 449 l 193 595 q 224 716 336 718 l 359 804 l 428 804 l 405 717 q 504 710 474 595 l 456 525 l 360 525 l 380 600 q 389 631 358 631 l 330 631 q 297 631 291 599 l 255 461 q 250 441 256 434 q 262 428 273 421 l 375 349 q 397 333 400 318 q 403 302 394 268 l 356 121 q 326 5 217 0 l 194 -86 l 125 -86 l 148 0 q 35 2 69 132 l 83 187 z"},"?":{"x_min":0,"x_max":376,"ha":376,"o":"m 253 122 l 222 0 l 120 0 l 151 122 z m 171 194 l 202 315 q 206 331 210 342 q 214 352 220 360 q 225 367 233 372 q 241 378 252 386 l 335 437 q 349 447 354 456 q 360 464 365 484 l 391 587 q 403 631 361 631 l 324 631 q 284 631 272 587 l 259 535 l 163 535 l 178 595 q 211 718 325 718 l 407 718 q 522 718 489 595 l 453 453 q 448 436 444 426 q 439 415 433 408 q 427 400 419 394 q 411 388 400 380 l 320 329 q 306 320 300 312 q 295 303 290 283 l 267 194 z"},"<":{"x_min":0,"x_max":298,"ha":298,"o":"m 310 165 l 280 48 l 91 278 l 108 341 l 416 573 l 385 454 l 188 309 z"},"'":{"x_min":0,"x_max":155,"ha":155,"o":"m 234 470 l 163 470 l 215 718 l 310 718 z"},"=":{"x_min":0,"x_max":370,"ha":370,"o":"m 139 384 l 160 466 l 450 466 l 429 384 z m 97 222 l 118 304 l 408 304 l 387 222 z"},"a":{"x_min":0,"x_max":382,"ha":382,"o":"m 336 350 l 398 589 q 408 631 367 631 l 341 631 q 298 631 288 589 l 226 350 z m 136 0 l 40 0 l 193 595 q 226 718 340 718 l 412 718 q 528 718 495 595 l 342 0 l 246 0 l 314 263 l 204 263 z"},"L":{"x_min":0,"x_max":277,"ha":277,"o":"m 257 0 l 45 0 l 230 718 l 326 718 l 161 80 l 277 80 z"},"3":{"x_min":0,"x_max":373,"ha":373,"o":"m 353 369 q 425 358 410 298 l 364 122 q 332 0 218 0 l 153 0 q 37 0 69 122 l 86 188 l 182 188 l 164 119 q 156 87 184 87 l 230 87 q 259 87 267 119 l 309 279 q 319 324 274 324 l 238 324 l 259 405 l 287 405 q 330 405 339 444 l 379 598 q 388 630 357 630 l 322 630 q 294 630 285 598 l 264 515 l 168 515 l 188 595 q 221 718 335 718 l 391 718 q 507 718 474 595 l 435 442 q 419 379 353 369 z"},";":{"x_min":0,"x_max":187,"ha":187,"o":"m 287 575 l 255 453 l 153 453 l 185 575 z m 10 -119 l 87 0 l 40 0 l 72 124 l 179 124 l 147 0 l 68 -119 z"},"J":{"x_min":0,"x_max":267,"ha":267,"o":"m 40 80 l 111 80 q 126 80 138 89 q 151 98 156 118 l 311 718 l 407 718 l 253 121 q 221 0 111 0 l 20 0 z"},"V":{"x_min":0,"x_max":375,"ha":375,"o":"m 541 718 l 240 0 l 126 0 l 195 718 l 290 718 l 226 170 l 446 718 z"},"\"":{"x_min":0,"x_max":299,"ha":299,"o":"m 381 480 l 310 480 l 359 718 l 454 718 z m 237 480 l 166 480 l 215 718 l 310 718 z"},"7":{"x_min":0,"x_max":303,"ha":303,"o":"m 172 629 l 195 718 l 453 718 l 474 686 l 160 0 l 65 0 l 351 629 z"},"S":{"x_min":0,"x_max":370,"ha":370,"o":"m 164 110 q 156 80 185 80 l 226 80 q 256 80 262 110 l 300 256 q 305 275 300 282 q 295 289 286 295 l 195 366 q 168 388 166 417 q 163 446 170 476 l 200 605 q 217 667 252 692 q 287 718 345 718 l 396 718 q 512 718 479 595 l 454 495 l 358 495 l 387 607 q 396 638 365 638 l 337 638 q 305 638 297 606 l 260 461 q 255 441 261 434 q 267 428 278 421 l 368 349 q 392 332 396 310 q 399 289 390 251 l 359 111 q 343 50 308 25 q 272 0 214 0 l 155 0 q 39 0 74 132 l 88 187 l 184 187 z"},"}":{"x_min":0,"x_max":253,"ha":253,"o":"m 266 430 q 206 443 223 507 l 272 698 q 285 749 242 749 l 213 749 l 231 818 l 276 818 q 388 818 355 695 l 310 520 q 297 468 354 468 l 333 387 q 275 387 262 335 l 207 123 q 175 0 65 0 l 20 0 l 37 69 l 66 69 q 109 69 123 120 l 181 344 q 198 411 266 430 z"},"Z":{"x_min":0,"x_max":303,"ha":303,"o":"m 298 80 l 278 0 l 45 0 l 42 69 l 344 637 l 205 637 l 226 718 l 438 718 l 445 650 l 146 80 z"},"x":{"x_min":0,"x_max":330,"ha":330,"o":"m 312 366 l 320 0 l 234 0 l 230 251 l 228 251 l 96 0 l 10 0 l 205 366 l 205 718 l 292 718 l 289 483 l 291 483 l 408 718 l 495 718 z"},")":{"x_min":0,"x_max":206,"ha":206,"o":"m 19 75 l 49 75 q 90 75 104 126 l 224 591 q 237 642 196 642 l 166 642 l 185 718 l 231 718 q 342 718 309 595 l 187 122 q 155 0 46 0 l 0 0 z"},"&":{"x_min":0,"x_max":373,"ha":373,"o":"m 252 331 q 215 331 205 292 l 157 106 q 151 80 174 80 l 225 80 q 251 80 257 106 l 315 331 z m 202 371 q 151 386 169 453 l 210 613 q 237 718 342 718 l 400 718 q 505 718 478 613 l 457 532 l 367 532 l 388 611 q 394 638 366 638 l 336 638 q 304 632 300 611 l 254 436 q 245 402 276 402 l 467 402 l 448 331 l 405 331 l 348 112 q 320 0 214 0 l 146 0 q 40 0 68 112 l 113 285 q 133 359 202 371 z"},"_":{"x_min":0,"x_max":275,"ha":275,"o":"m -28 -71 l -10 0 l 285 0 l 266 -71 z"},"v":{"x_min":0,"x_max":374,"ha":374,"o":"m 540 718 l 239 0 l 125 0 l 194 718 l 289 718 l 225 170 l 445 718 z"},"O":{"x_min":0,"x_max":402,"ha":402,"o":"m 242 80 q 259 80 272 89 q 286 98 291 117 l 416 601 q 426 638 388 638 l 343 638 q 306 638 296 601 l 171 117 q 161 80 199 80 z m 161 0 q 44 0 76 122 l 198 595 q 231 718 345 718 l 427 718 q 543 718 510 595 l 388 122 q 356 0 241 0 z"},"(":{"x_min":0,"x_max":206,"ha":206,"o":"m 206 0 l 160 0 q 49 0 81 122 l 203 595 q 236 718 345 718 l 391 718 l 372 642 l 342 642 q 299 642 286 591 l 166 126 q 152 75 195 75 l 225 75 z"},"C":{"x_min":0,"x_max":367,"ha":367,"o":"m 385 188 l 368 122 q 352 61 319 30 q 286 0 222 0 l 160 0 q 44 0 76 122 l 199 596 q 231 718 345 718 l 407 718 q 523 718 491 596 l 465 495 l 369 495 l 395 596 q 405 638 363 638 l 344 638 q 305 638 295 596 l 172 122 q 161 80 199 80 l 223 80 q 261 80 272 122 l 289 188 z"},"W":{"x_min":0,"x_max":565,"ha":565,"o":"m 219 0 l 115 0 l 194 718 l 289 718 l 218 180 l 425 718 l 500 718 l 429 180 l 636 718 l 731 718 l 440 0 l 336 0 l 384 416 z"},"A":{"x_min":0,"x_max":382,"ha":382,"o":"m 336 350 l 398 589 q 408 631 367 631 l 341 631 q 298 631 288 589 l 226 350 z m 136 0 l 40 0 l 193 595 q 226 718 340 718 l 412 718 q 528 718 495 595 l 342 0 l 246 0 l 314 263 l 204 263 z"},"f":{"x_min":0,"x_max":287,"ha":287,"o":"m 358 393 l 338 313 l 222 313 l 141 0 l 45 0 l 230 718 l 442 718 l 422 638 l 306 638 l 242 393 z"},"Q":{"x_min":0,"x_max":402,"ha":402,"o":"m 416 601 q 426 638 388 638 l 343 638 q 306 638 296 601 l 171 117 q 161 80 199 80 l 281 80 z m 430 80 l 410 0 l 161 0 q 44 0 76 122 l 198 595 q 231 718 345 718 l 427 718 q 543 718 510 595 l 377 80 z"},"w":{"x_min":0,"x_max":565,"ha":565,"o":"m 219 0 l 115 0 l 194 718 l 289 718 l 218 180 l 425 718 l 500 718 l 429 180 l 636 718 l 731 718 l 440 0 l 336 0 l 384 416 z"},"-":{"x_min":0,"x_max":240,"ha":240,"o":"m 91 313 l 111 393 l 331 393 l 311 313 z"},"E":{"x_min":0,"x_max":287,"ha":287,"o":"m 45 0 l 230 718 l 442 718 l 422 638 l 306 638 l 242 393 l 358 393 l 338 313 l 222 313 l 161 80 l 277 80 l 257 0 z"},"s":{"x_min":0,"x_max":370,"ha":370,"o":"m 164 110 q 156 80 185 80 l 226 80 q 256 80 262 110 l 300 256 q 305 275 300 282 q 295 289 286 295 l 195 366 q 168 388 166 417 q 163 446 170 476 l 200 605 q 217 667 252 692 q 287 718 345 718 l 396 718 q 512 718 479 595 l 454 495 l 358 495 l 387 607 q 396 638 365 638 l 337 638 q 305 638 297 606 l 260 461 q 255 441 261 434 q 267 428 278 421 l 368 349 q 392 332 396 310 q 399 289 390 251 l 359 111 q 343 50 308 25 q 272 0 214 0 l 155 0 q 39 0 74 132 l 88 187 l 184 187 z"},">":{"x_min":0,"x_max":298,"ha":298,"o":"m 147 454 l 177 571 l 366 342 l 349 278 l 41 46 l 72 165 l 269 310 z"},"l":{"x_min":0,"x_max":277,"ha":277,"o":"m 257 0 l 45 0 l 230 718 l 326 718 l 161 80 l 277 80 z"},"8":{"x_min":0,"x_max":383,"ha":383,"o":"m 257 441 q 248 407 277 407 l 315 407 q 344 409 354 442 l 395 599 q 402 630 369 630 l 339 630 q 305 630 298 599 z m 226 87 q 269 87 282 139 l 321 288 q 330 324 294 324 l 250 324 q 219 323 210 288 l 171 139 q 158 87 201 87 z m 210 366 q 146 381 161 443 l 200 595 q 233 718 347 718 l 406 718 q 522 718 489 595 l 450 442 q 433 380 367 365 q 434 354 412 269 l 374 122 q 342 0 228 0 l 155 0 q 39 0 71 122 l 109 270 q 132 353 210 366 z"},"\\":{"x_min":0,"x_max":267,"ha":267,"o":"m 256 768 l 264 -50 l 197 -50 l 188 768 z"},"e":{"x_min":0,"x_max":287,"ha":287,"o":"m 45 0 l 230 718 l 442 718 l 422 638 l 306 638 l 242 393 l 358 393 l 338 313 l 222 313 l 161 80 l 277 80 l 257 0 z"},"b":{"x_min":0,"x_max":382,"ha":382,"o":"m 242 393 l 285 393 q 313 393 325 404 q 337 414 344 440 l 382 586 q 395 638 353 638 l 306 638 z m 161 80 l 241 80 q 272 80 279 111 l 318 262 q 331 313 275 313 l 222 313 z m 369 355 q 407 353 418 334 q 429 316 418 278 l 374 107 q 367 80 358 60 q 349 40 334 26 q 319 13 296 6 q 273 0 238 0 l 45 0 l 230 718 l 384 718 q 512 718 479 588 l 439 436 q 430 404 414 384 q 398 363 369 355 z"},"%":{"x_min":0,"x_max":696,"ha":696,"o":"m 621 321 q 602 321 598 305 l 540 80 q 535 62 554 62 l 576 62 q 595 62 600 80 l 658 305 q 662 321 643 321 z m 303 655 q 285 655 281 639 l 223 414 q 218 396 236 396 l 258 396 q 278 396 283 414 l 341 639 q 345 655 325 655 z m 677 718 l 264 0 l 203 0 l 616 718 z m 212 334 q 126 334 148 419 l 203 633 q 225 718 311 718 l 350 718 q 437 718 415 633 l 360 419 q 338 334 251 334 z m 530 0 q 444 0 465 85 l 521 299 q 543 384 629 384 l 668 384 q 755 384 733 299 l 677 85 q 656 0 569 0 z"},"m":{"x_min":0,"x_max":475,"ha":475,"o":"m 316 296 l 514 718 l 620 718 l 435 0 l 339 0 l 470 470 l 310 130 l 236 130 l 252 470 l 141 0 l 45 0 l 230 718 l 336 718 z"},"#":{"x_min":0,"x_max":465,"ha":465,"o":"m 307 479 l 218 244 l 319 244 l 408 479 z m 191 176 l 125 0 l 57 0 l 123 176 l 45 176 l 71 244 l 150 244 l 239 479 l 160 479 l 186 547 l 265 547 l 330 718 l 398 718 l 333 547 l 434 547 l 499 718 l 567 718 l 502 547 l 576 547 l 550 479 l 476 479 l 387 244 l 461 244 l 435 176 l 360 176 l 294 0 l 226 0 l 292 176 z"},",":{"x_min":0,"x_max":167,"ha":167,"o":"m 0 -119 l 77 0 l 30 0 l 62 124 l 169 124 l 137 0 l 58 -119 z"},"n":{"x_min":0,"x_max":381,"ha":381,"o":"m 429 718 l 525 718 l 340 0 l 244 0 l 281 143 l 262 470 l 141 0 l 45 0 l 230 718 l 326 718 l 340 371 z"},"h":{"x_min":0,"x_max":392,"ha":392,"o":"m 251 0 l 332 313 l 222 313 l 141 0 l 45 0 l 230 718 l 326 718 l 242 393 l 352 393 l 436 718 l 532 718 l 347 0 z"},"z":{"x_min":0,"x_max":303,"ha":303,"o":"m 298 80 l 278 0 l 45 0 l 42 69 l 344 637 l 205 637 l 226 718 l 438 718 l 445 650 l 146 80 z"},"B":{"x_min":0,"x_max":382,"ha":382,"o":"m 242 393 l 285 393 q 313 393 325 404 q 337 414 344 440 l 382 586 q 395 638 353 638 l 306 638 z m 161 80 l 241 80 q 272 80 279 111 l 318 262 q 331 313 275 313 l 222 313 z m 369 355 q 407 353 418 334 q 429 316 418 278 l 374 107 q 367 80 358 60 q 349 40 334 26 q 319 13 296 6 q 273 0 238 0 l 45 0 l 230 718 l 384 718 q 512 718 479 588 l 439 436 q 430 404 414 384 q 398 363 369 355 z"},"K":{"x_min":0,"x_max":354,"ha":354,"o":"m 233 356 l 429 718 l 517 718 l 321 360 l 354 0 l 258 0 l 231 350 l 141 0 l 45 0 l 230 718 l 326 718 z"},"R":{"x_min":0,"x_max":383,"ha":383,"o":"m 237 372 l 300 372 q 343 372 356 424 l 396 579 q 409 631 367 631 l 304 631 z m 262 0 l 274 290 l 216 290 l 141 0 l 45 0 l 230 718 l 418 718 q 529 718 496 595 l 451 418 q 426 324 363 299 l 353 0 z"},"T":{"x_min":0,"x_max":300,"ha":300,"o":"m 363 638 l 198 0 l 102 0 l 267 638 l 175 638 l 195 718 l 475 718 l 455 638 z"},"P":{"x_min":0,"x_max":372,"ha":372,"o":"m 232 353 l 248 353 q 293 353 319 370 q 345 387 355 425 l 402 606 q 413 638 377 638 l 306 638 z m 141 0 l 45 0 l 230 718 l 411 718 q 526 718 495 595 l 448 411 q 428 336 373 304 q 318 273 227 273 l 211 273 z"},"|":{"x_min":0,"x_max":208,"ha":208,"o":"m 44 -100 l 281 818 l 349 818 l 112 -100 z"},"t":{"x_min":0,"x_max":300,"ha":300,"o":"m 363 638 l 198 0 l 102 0 l 267 638 l 175 638 l 195 718 l 475 718 l 455 638 z"},"M":{"x_min":0,"x_max":475,"ha":475,"o":"m 316 296 l 514 718 l 620 718 l 435 0 l 339 0 l 470 470 l 310 130 l 236 130 l 252 470 l 141 0 l 45 0 l 230 718 l 336 718 z"},"g":{"x_min":0,"x_max":390,"ha":390,"o":"m 260 273 l 281 353 l 435 353 l 345 0 l 160 0 q 44 0 76 122 l 199 596 q 231 718 345 718 l 407 718 q 523 718 491 596 l 465 495 l 369 495 l 393 589 q 399 613 393 622 q 387 631 361 631 l 342 631 q 303 631 293 589 l 174 129 q 168 106 174 96 q 180 87 202 87 l 270 87 l 318 273 z"},"j":{"x_min":0,"x_max":267,"ha":267,"o":"m 40 80 l 111 80 q 126 80 138 89 q 151 98 156 118 l 311 718 l 407 718 l 253 121 q 221 0 111 0 l 20 0 z"},"i":{"x_min":0,"x_max":186,"ha":186,"o":"m 45 0 l 230 718 l 326 718 l 141 0 z"},"y":{"x_min":0,"x_max":350,"ha":350,"o":"m 285 406 l 430 718 l 525 718 l 286 244 l 224 0 l 128 0 l 196 264 l 195 718 l 290 718 l 282 406 z"},"@":{"x_min":0,"x_max":549,"ha":549,"o":"m 407 345 l 454 527 q 458 543 434 543 l 404 543 q 380 543 376 527 l 329 345 z m 504 0 l 45 0 l 182 533 q 194 579 216 614 q 239 649 268 672 q 298 696 333 707 q 368 718 407 718 l 497 718 q 604 718 634 672 q 667 627 647 555 l 531 106 l 345 106 l 390 280 l 312 280 l 267 106 l 196 106 l 302 516 q 326 607 411 607 l 461 607 q 546 607 522 516 l 431 165 l 480 165 l 580 550 q 594 604 570 630 q 547 656 484 656 l 394 656 q 337 655 300 624 q 263 592 249 537 l 127 63 l 520 63 z"},".":{"x_min":0,"x_max":182,"ha":182,"o":"m 173 122 l 142 0 l 40 0 l 71 122 z"},"p":{"x_min":0,"x_max":372,"ha":372,"o":"m 232 353 l 248 353 q 293 353 319 370 q 345 387 355 425 l 402 606 q 413 638 377 638 l 306 638 z m 141 0 l 45 0 l 230 718 l 411 718 q 526 718 495 595 l 448 411 q 428 336 373 304 q 318 273 227 273 l 211 273 z"},"X":{"x_min":0,"x_max":330,"ha":330,"o":"m 312 366 l 320 0 l 234 0 l 230 251 l 228 251 l 96 0 l 10 0 l 205 366 l 205 718 l 292 718 l 289 483 l 291 483 l 408 718 l 495 718 z"},"*":{"x_min":0,"x_max":356,"ha":356,"o":"m 266 690 l 317 618 l 327 624 l 362 727 l 448 696 l 374 606 l 377 599 l 484 623 l 464 535 l 370 549 l 364 542 l 403 463 l 309 416 l 308 518 l 299 521 l 207 445 l 170 518 l 271 561 l 271 570 l 188 612 z"},"Y":{"x_min":0,"x_max":350,"ha":350,"o":"m 285 406 l 430 718 l 525 718 l 286 244 l 224 0 l 128 0 l 196 264 l 195 718 l 290 718 l 282 406 z"},"c":{"x_min":0,"x_max":367,"ha":367,"o":"m 385 188 l 368 122 q 352 61 319 30 q 286 0 222 0 l 160 0 q 44 0 76 122 l 199 596 q 231 718 345 718 l 407 718 q 523 718 491 596 l 465 495 l 369 495 l 395 596 q 405 638 363 638 l 344 638 q 305 638 295 596 l 172 122 q 161 80 199 80 l 223 80 q 261 80 272 122 l 289 188 z"},"!":{"x_min":0,"x_max":178,"ha":178,"o":"m 173 122 l 142 0 l 40 0 l 71 122 z m 327 718 l 180 194 l 99 194 l 221 718 z"},"/":{"x_min":0,"x_max":267,"ha":267,"o":"m 475 768 l 44 -50 l -22 -50 l 407 768 z"},"[":{"x_min":0,"x_max":225,"ha":225,"o":"m 50 0 l 235 718 l 390 718 l 372 647 l 300 647 l 151 71 l 223 71 l 205 0 z"},"6":{"x_min":0,"x_max":385,"ha":385,"o":"m 171 119 q 163 87 192 87 l 237 87 q 267 87 274 118 l 319 291 q 328 324 294 324 l 224 324 z m 373 524 l 393 599 q 401 631 368 631 l 333 631 q 304 631 296 599 l 240 386 q 254 400 273 406 q 292 411 307 411 l 336 411 q 445 411 414 288 l 371 121 q 340 0 230 0 l 155 0 q 44 0 73 111 l 198 595 q 231 718 340 718 l 409 718 q 520 718 487 595 l 469 524 z"},"r":{"x_min":0,"x_max":373,"ha":373,"o":"m 227 372 l 290 372 q 333 372 346 424 l 386 579 q 399 631 357 631 l 294 631 z m 252 0 l 264 290 l 206 290 l 131 0 l 35 0 l 220 718 l 408 718 q 519 718 486 595 l 441 418 q 416 324 353 299 l 343 0 z"},"2":{"x_min":0,"x_max":365,"ha":365,"o":"m 337 86 l 315 0 l 57 0 l 78 83 q 86 115 102 140 q 119 166 135 186 l 316 405 q 324 416 330 424 q 335 431 340 451 l 380 604 q 386 631 361 631 l 328 631 q 298 631 292 603 l 269 515 l 173 515 l 193 595 q 226 718 340 718 l 390 718 q 506 718 473 595 l 435 446 q 430 426 418 406 q 406 387 390 368 l 200 144 q 187 129 184 116 q 180 104 175 86 z"},"{":{"x_min":0,"x_max":253,"ha":253,"o":"m 206 420 q 264 401 247 334 l 192 120 q 178 69 221 69 l 250 69 l 233 0 l 188 0 q 76 0 108 123 l 161 325 q 174 377 117 377 l 138 458 q 195 458 208 510 l 256 695 q 289 818 399 818 l 444 818 l 426 749 l 397 749 q 354 749 341 698 l 289 497 q 272 433 206 420 z"},"9":{"x_min":0,"x_max":383,"ha":383,"o":"m 398 599 q 406 631 377 631 l 332 631 q 302 631 295 600 l 239 383 q 230 350 263 350 l 333 350 z m 317 288 q 303 274 284 268 q 266 263 251 263 l 222 263 q 111 263 143 386 l 198 597 q 229 718 339 718 l 414 718 q 524 718 496 607 l 370 123 q 338 0 229 0 l 160 0 q 49 0 81 123 l 96 180 l 192 180 l 176 119 q 168 87 201 87 l 236 87 q 265 87 273 119 l 317 288 z"}," ":{"x_min":0,"x_max":160,"ha":160,"o":""},"I":{"x_min":0,"x_max":186,"ha":186,"o":"m 45 0 l 230 718 l 326 718 l 141 0 z"},"H":{"x_min":0,"x_max":392,"ha":392,"o":"m 251 0 l 332 313 l 222 313 l 141 0 l 45 0 l 230 718 l 326 718 l 242 393 l 352 393 l 436 718 l 532 718 l 347 0 z"},"4":{"x_min":0,"x_max":367,"ha":367,"o":"m 375 597 l 370 597 l 173 219 l 262 219 z m 387 138 l 332 138 l 297 0 l 203 0 l 238 138 l 100 138 q 87 138 81 143 q 75 148 77 165 l 82 214 l 358 718 l 482 718 l 353 219 l 408 219 z"},"~":{"x_min":0,"x_max":439,"ha":439,"o":"m 584 718 q 574 680 556 657 q 539 634 518 620 q 497 607 474 602 q 452 598 434 598 q 415 598 400 606 q 384 613 370 622 q 356 631 344 638 q 331 646 319 646 q 302 646 288 636 q 274 625 267 599 l 195 599 q 204 636 222 660 q 239 684 260 697 q 280 710 300 715 q 320 720 335 720 q 354 720 368 712 q 381 705 393 696 q 405 686 416 678 q 428 671 443 671 q 461 671 480 682 q 500 692 507 718 z"},"D":{"x_min":0,"x_max":387,"ha":387,"o":"m 163 87 l 235 87 q 255 87 266 96 q 277 105 281 119 l 400 579 q 413 631 371 631 l 304 631 z m 230 718 l 397 718 q 465 718 491 688 q 517 659 500 590 l 373 104 q 347 0 232 0 l 45 0 z"},"^":{"x_min":0,"x_max":412,"ha":412,"o":"m 275 586 l 181 586 l 361 718 l 421 718 l 533 586 l 439 586 l 376 660 z"},"0":{"x_min":0,"x_max":387,"ha":387,"o":"m 337 631 q 304 631 295 598 l 172 121 q 163 87 192 87 l 238 87 q 268 87 277 122 l 400 598 q 409 631 374 631 z m 160 0 q 44 0 76 123 l 198 595 q 231 718 345 718 l 412 718 q 528 718 495 595 l 373 123 q 341 0 227 0 z"},"F":{"x_min":0,"x_max":287,"ha":287,"o":"m 358 393 l 338 313 l 222 313 l 141 0 l 45 0 l 230 718 l 442 718 l 422 638 l 306 638 l 242 393 z"},"`":{"x_min":0,"x_max":194,"ha":194,"o":"m 238 552 l 205 680 l 293 680 l 306 552 z"},"k":{"x_min":0,"x_max":354,"ha":354,"o":"m 233 356 l 429 718 l 517 718 l 321 360 l 354 0 l 258 0 l 231 350 l 141 0 l 45 0 l 230 718 l 326 718 z"},"u":{"x_min":0,"x_max":392,"ha":392,"o":"m 532 718 l 382 136 q 365 67 322 34 q 278 0 210 0 l 181 0 q 45 0 80 137 l 230 718 l 326 718 l 175 134 q 162 87 205 87 l 229 87 q 272 87 285 134 l 436 718 z"},"]":{"x_min":0,"x_max":225,"ha":225,"o":"m 20 0 l 38 71 l 110 71 l 259 647 l 187 647 l 205 718 l 360 718 l 175 0 z"},"U":{"x_min":0,"x_max":392,"ha":392,"o":"m 532 718 l 382 136 q 365 67 322 34 q 278 0 210 0 l 181 0 q 45 0 80 137 l 230 718 l 326 718 l 175 134 q 162 87 205 87 l 229 87 q 272 87 285 134 l 436 718 z"},"o":{"x_min":0,"x_max":402,"ha":402,"o":"m 242 80 q 259 80 272 89 q 286 98 291 117 l 416 601 q 426 638 388 638 l 343 638 q 306 638 296 601 l 171 117 q 161 80 199 80 z m 161 0 q 44 0 76 122 l 198 595 q 231 718 345 718 l 427 718 q 543 718 510 595 l 388 122 q 356 0 241 0 z"},"N":{"x_min":0,"x_max":381,"ha":381,"o":"m 429 718 l 525 718 l 340 0 l 244 0 l 281 143 l 262 470 l 141 0 l 45 0 l 230 718 l 326 718 l 340 371 z"},"+":{"x_min":0,"x_max":381,"ha":381,"o":"m 318 310 l 289 198 l 201 198 l 230 310 l 120 310 l 141 394 l 251 394 l 281 510 l 369 510 l 339 394 l 442 394 l 421 310 z"},"G":{"x_min":0,"x_max":390,"ha":390,"o":"m 260 273 l 281 353 l 435 353 l 345 0 l 160 0 q 44 0 76 122 l 199 596 q 231 718 345 718 l 407 718 q 523 718 491 596 l 465 495 l 369 495 l 393 589 q 399 613 393 622 q 387 631 361 631 l 342 631 q 303 631 293 589 l 174 129 q 168 106 174 96 q 180 87 202 87 l 270 87 l 318 273 z"},"q":{"x_min":0,"x_max":402,"ha":402,"o":"m 416 601 q 426 638 388 638 l 343 638 q 306 638 296 601 l 171 117 q 161 80 199 80 l 281 80 z m 430 80 l 410 0 l 161 0 q 44 0 76 122 l 198 595 q 231 718 345 718 l 427 718 q 543 718 510 595 l 377 80 z"},"d":{"x_min":0,"x_max":387,"ha":387,"o":"m 163 87 l 235 87 q 255 87 266 96 q 277 105 281 119 l 400 579 q 413 631 371 631 l 304 631 z m 230 718 l 397 718 q 465 718 491 688 q 517 659 500 590 l 373 104 q 347 0 232 0 l 45 0 z"},"1":{"x_min":0,"x_max":242,"ha":242,"o":"m 185 548 l 165 624 q 194 638 216 650 q 238 661 252 671 q 266 681 279 692 q 292 704 304 718 l 314 718 l 369 684 l 192 0 l 97 0 l 246 578 z"},"5":{"x_min":0,"x_max":364,"ha":364,"o":"m 165 115 q 158 87 186 87 l 223 87 q 250 87 257 115 l 308 311 q 316 340 281 340 l 130 340 l 228 718 l 499 718 l 476 629 l 295 629 l 237 402 q 248 413 266 420 q 283 427 303 427 l 328 427 q 433 427 409 329 l 356 127 q 323 0 209 0 l 155 0 q 39 0 71 122 l 86 178 l 182 178 z"}}}
